<?xml version="1.0" encoding="UTF-8"?>
<svg id="Layer_2" data-name="Layer 2" xmlns="http://www.w3.org/2000/svg" viewBox="0 0 347.23 575.1">
  <defs>
    <style>
      .cls-1, .cls-2 {
        fill: #ed908a;
      }

      .cls-3, .cls-4 {
        fill: #f19b23;
      }

      .cls-4, .cls-5, .cls-2, .cls-6, .cls-7, .cls-8 {
        stroke: #231f20;
        stroke-miterlimit: 10;
      }

      .cls-5 {
        fill: #ea4824;
      }

      .cls-6 {
        fill: #d6b729;
      }

      .cls-7 {
        fill: #de7293;
      }

      .cls-8 {
        fill: none;
      }
    </style>
  </defs>
  <g id="Layer_1-2" data-name="Layer 1">
    <g>
      <path class="cls-6" d="m275.05,381.92c.19-1.24-.66-2.41-1.9-2.6-2.49-.38-4.81,1.32-5.2,3.81-.77,4.97,2.64,9.63,7.61,10.4,9.95,1.54,19.26-5.28,20.8-15.22,3.08-19.89-10.56-38.52-30.45-41.59-39.79-6.15-77.03,21.11-83.19,60.9,0,0,13.76-28.87,56.61-30.75,42.85-1.88,35.72,15.07,35.72,15.07Z"/>
      <path class="cls-6" d="m87.72,384.23c-.25-1.23.55-2.43,1.79-2.68,2.47-.49,4.87,1.11,5.36,3.57.99,4.93-2.21,9.74-7.15,10.72-9.87,1.97-19.47-4.43-21.44-14.3-3.95-19.74,8.85-38.94,28.59-42.89,39.48-7.9,77.88,17.71,85.78,57.19,0,0-15.01-28.24-57.9-28.24-42.89,0-35.03,16.62-35.03,16.62Z"/>
      <path class="cls-6" d="m101.94,103.59c16.56,37.75,28.33,130.8,35.56,195.34,7.22,64.54.2,249.59.2,249.59h23.97s-19.55-297.27-13.84-356.44,22.07-88.5,22.07-88.5"/>
      <path class="cls-6" d="m144.7,362.67s24.59,15.12,35.29,102.23c10.69,87.11,2.73,83.63,2.73,83.63h19.78s-34.26-130.15,12.42-185.02"/>
      <path class="cls-6" d="m43.17,341.02l17.51-5.19s45.08,51.58,28.45,129.5,1.75,83.21,1.75,83.21h-25.32s4.75-16.68,15.26-88.47c10.51-71.79-19.26-110.3-37.64-119.06Z"/>
      <path class="cls-6" d="m61.1,231.35c41.41,45.5,48.11,237.15,40.84,312.42h16.2s2.83-232.79-39.14-315.75-17.91,3.33-17.91,3.33Z"/>
      <path class="cls-6" d="m224.33,200.21s-149.34,101.65-165.15,231.53c-15.81,129.88-20.89,142.87-20.89,142.87h13.59s12.92-41.79,21.97-141.17,95.74-186.91,149.52-224.75l.96-8.47Z"/>
      <path class="cls-6" d="m236.87,407.58h21.76s7.09,56.72-3.57,105.44c-10.66,48.72-18.19,35.51-18.19,35.51l-25.07,1.63s34.29-91.96,25.07-142.58Z"/>
      <path class="cls-6" d="m122.3,421.88h22.84s-12.94,140.69-83.74,148.46h-25.37s92.37-74.02,86.28-148.46Z"/>
      <path class="cls-6" d="m320.53,442.19h-30.45s-9.9,60.17-28.55,87.57c-18.65,27.41-9.76,20.4-9.76,20.4l48.97-1.63s27.41-82.77,19.79-106.34Z"/>
      <path class="cls-5" d="m137.63,185.72c-10.16,0-17.57-4.38-21.51-12.37-4.39,2.91-8.61,3.72-11.94,3.72-4.21,0-8.54-1.27-12.86-3.76-8.79-5.08-13.02-12.57-12.44-21.45-.51.03-1.02.05-1.52.05-5.8,0-13.97-2.17-19.94-12.49-5.08-8.79-4.99-17.4-.05-24.8-7.98-3.94-12.36-11.35-12.36-21.5s4.38-17.56,12.36-21.5c-4.95-7.4-5.03-16.01.05-24.8,5.96-10.33,14.13-12.49,19.94-12.49.5,0,1.01.02,1.52.05-.58-8.88,3.65-16.38,12.44-21.45,4.32-2.5,8.65-3.76,12.86-3.76,3.33,0,7.55.81,11.94,3.72,3.94-7.99,11.35-12.37,21.51-12.37s17.57,4.38,21.51,12.37c4.39-2.92,8.61-3.72,11.94-3.72,4.21,0,8.54,1.27,12.86,3.76,8.79,5.08,13.02,12.57,12.44,21.45.51-.03,1.02-.05,1.52-.05,5.8,0,13.97,2.17,19.94,12.49,5.08,8.79,4.99,17.4.05,24.8,7.99,3.94,12.36,11.35,12.36,21.5s-4.37,17.56-12.36,21.5c4.95,7.4,5.03,16.01-.05,24.8-5.96,10.33-14.13,12.49-19.94,12.49h0c-.5,0-1.01-.02-1.52-.05.58,8.88-3.65,16.38-12.44,21.45-4.32,2.5-8.65,3.76-12.86,3.76-3.33,0-7.55-.81-11.93-3.72-3.94,7.99-11.35,12.37-21.51,12.37Z"/>
      <path class="cls-4" d="m223.38,93.11c0-13.32-9.31-17.33-19.25-17.82,8.37-5.39,14.43-13.52,7.76-25.06-6.66-11.54-16.73-10.35-25.58-5.8,4.55-8.85,5.73-18.92-5.8-25.58-11.54-6.66-19.66-.6-25.06,7.76-.49-9.94-4.5-19.25-17.82-19.25s-17.33,9.31-17.82,19.25c-5.39-8.37-13.52-14.43-25.06-7.76-11.54,6.66-10.35,16.73-5.8,25.58-8.85-4.55-18.92-5.73-25.58,5.8-6.66,11.54-.6,19.66,7.77,25.06-9.94.49-19.25,4.5-19.25,17.82s9.31,17.33,19.25,17.82c-8.37,5.39-14.42,13.52-7.76,25.06,6.66,11.54,16.73,10.35,25.58,5.8-4.55,8.85-5.73,18.92,5.8,25.58,11.54,6.66,19.66.6,25.06-7.77.49,9.94,4.5,19.25,17.82,19.25s17.33-9.31,17.82-19.25c5.39,8.37,13.52,14.42,25.06,7.76,11.54-6.66,10.35-16.73,5.8-25.58,8.85,4.55,18.92,5.73,25.58-5.8,6.66-11.54.6-19.66-7.76-25.06,9.94-.49,19.25-4.5,19.25-17.82Z"/>
      <circle class="cls-6" cx="137.5" cy="93.24" r="42.79"/>
      <circle class="cls-7" cx="137.7" cy="93.17" r="28.49"/>
      <path class="cls-7" d="m304.42,203.08c0-14.09-25.15-11.41-45.52-6.93,19.88-6.3,43-16.56,35.95-28.76-7.04-12.2-27.48,2.69-42.88,16.75,14.06-15.4,28.95-35.84,16.76-42.88-12.2-7.04-22.45,16.07-28.76,35.95,4.48-20.37,7.16-45.51-6.93-45.51s-11.41,25.15-6.93,45.51c-6.3-19.88-16.56-43-28.76-35.95-12.2,7.04,2.69,27.48,16.76,42.88-15.4-14.06-35.84-28.96-42.88-16.76-7.04,12.2,16.07,22.45,35.95,28.76-20.37-4.48-45.52-7.16-45.52,6.93s25.14,11.41,45.51,6.93c-19.88,6.3-42.99,16.56-35.95,28.76,7.04,12.2,27.49-2.7,42.89-16.76-14.06,15.4-28.96,35.84-16.76,42.89,12.2,7.04,22.45-16.07,28.76-35.95-4.48,20.37-7.16,45.52,6.93,45.52s11.41-25.15,6.93-45.52c6.3,19.88,16.56,43,28.76,35.96,12.2-7.04-2.69-27.48-16.75-42.88,15.4,14.06,35.83,28.95,42.88,16.75,7.04-12.2-16.07-22.45-35.95-28.76,20.37,4.48,45.51,7.16,45.51-6.93Z"/>
      <circle class="cls-6" cx="232.94" cy="202.76" r="28.59"/>
      <circle class="cls-4" cx="232.94" cy="203.19" r="14.3"/>
      <g>
        <path class="cls-1" d="m346.73,442.19c0,2.6-1.41,5.2-5.04,7.3-2.34,1.35-4.63,5.12-8.12,6.15-2.8.82-7.01-2.86-10.39-2.3-2.98.49-5.69,5.08-9.01,5.34-3.07.23-6.46.61-9.74.61s-6.69-.12-9.76-.36c-3.33-.25-6.01-5.12-9-5.61-3.38-.56-6.33-1.17-9.13-1.99-3.5-1.03-6.51-1.42-8.85-2.78-3.63-2.1-7.95-3.76-7.95-6.36s5-3.1,8.63-5.2c2.34-1.35,3.85-5.74,7.35-6.76,2.8-.82,6.67,1.96,10.05,1.4,2.98-.49,5.53-6.55,8.85-6.81,3.07-.23,6.53,2,9.81,2s6.45,1.57,9.52,1.8c3.33.25,6.93-2.16,9.92-1.66,3.38.56,5.73,4.99,8.53,5.81,3.5,1.03,7.6-.33,9.94,1.02,3.63,2.1,4.4,5.8,4.4,8.39Z"/>
        <path class="cls-8" d="m346.73,442.19c0,2.6-1.41,5.2-5.04,7.3-2.34,1.35-4.63,5.12-8.12,6.15-2.8.82-7.01-2.86-10.39-2.3-2.98.49-5.69,5.08-9.01,5.34-3.07.23-6.46.61-9.74.61s-6.69-.12-9.76-.36c-3.33-.25-6.01-5.12-9-5.61-3.38-.56-6.33-1.17-9.13-1.99-3.5-1.03-6.51-1.42-8.85-2.78-3.63-2.1-7.95-3.76-7.95-6.36s5-3.1,8.63-5.2c2.34-1.35,3.85-5.74,7.35-6.76,2.8-.82,6.67,1.96,10.05,1.4,2.98-.49,5.53-6.55,8.85-6.81,3.07-.23,6.53,2,9.81,2s6.45,1.57,9.52,1.8c3.33.25,6.93-2.16,9.92-1.66,3.38.56,5.73,4.99,8.53,5.81,3.5,1.03,7.6-.33,9.94,1.02,3.63,2.1,4.4,5.8,4.4,8.39Z"/>
      </g>
      <g>
        <path class="cls-1" d="m169.73,421.88c0,2.91-2.99,7.36-6.72,9.62-2.52,1.52-6.66,1.61-10.4,2.65-3.05.85-6.92-1.77-10.56-1.33-3.25.39-6.36,5.7-9.93,5.7s-7.04-2.28-10.29-2.67c-3.64-.44-7.72,1.2-10.77.35-3.75-1.04-7.02-3.66-9.54-5.19-3.73-2.26-5.95-6.22-5.95-9.13s3.89-4.12,7.62-6.38c2.52-1.52,5.51-1.92,9.25-2.96,3.05-.85,5.62-5.19,9.26-5.63,3.25-.39,6.85,2.38,10.42,2.38s7.01-1.5,10.26-1.11c3.64.44,6.44,3.24,9.49,4.08,3.75,1.04,7.59.18,10.1,1.71,3.73,2.26,7.75,5,7.75,7.91Z"/>
        <path class="cls-8" d="m169.73,421.88c0,2.91-2.99,7.36-6.72,9.62-2.52,1.52-6.66,1.61-10.4,2.65-3.05.85-6.92-1.77-10.56-1.33-3.25.39-6.36,5.7-9.93,5.7s-7.04-2.28-10.29-2.67c-3.64-.44-7.72,1.2-10.77.35-3.75-1.04-7.02-3.66-9.54-5.19-3.73-2.26-5.95-6.22-5.95-9.13s3.89-4.12,7.62-6.38c2.52-1.52,5.51-1.92,9.25-2.96,3.05-.85,5.62-5.19,9.26-5.63,3.25-.39,6.85,2.38,10.42,2.38s7.01-1.5,10.26-1.11c3.64.44,6.44,3.24,9.49,4.08,3.75,1.04,7.59.18,10.1,1.71,3.73,2.26,7.75,5,7.75,7.91Z"/>
      </g>
      <g>
        <path class="cls-1" d="m285.79,407.58c0,2.91-6.37,3.33-10.11,5.59-2.52,1.52-4.75,3.72-8.5,4.76-3.05.85-6.08,2.75-9.72,3.19-3.25.39-6.68-.99-10.24-.99s-6.9.62-10.15.23c-3.64-.44-6.78-1.51-9.83-2.36-3.75-1.04-7.2-1.26-9.71-2.78-3.73-2.26-4.78-4.72-4.78-7.63s-.56-8.03,3.17-10.29c2.52-1.52,7.23-.34,10.97-1.38,3.05-.85,6.25-3.03,9.89-3.47,3.25-.39,6.87,1.39,10.44,1.39s6.96.07,10.21.46c3.64.44,7.75-1.7,10.8-.85,3.75,1.04,6.18,4.96,8.69,6.48,3.73,2.26,8.86,4.74,8.86,7.65Z"/>
        <path class="cls-8" d="m285.79,407.58c0,2.91-6.37,3.33-10.11,5.59-2.52,1.52-4.75,3.72-8.5,4.76-3.05.85-6.08,2.75-9.72,3.19-3.25.39-6.68-.99-10.24-.99s-6.9.62-10.15.23c-3.64-.44-6.78-1.51-9.83-2.36-3.75-1.04-7.2-1.26-9.71-2.78-3.73-2.26-4.78-4.72-4.78-7.63s-.56-8.03,3.17-10.29c2.52-1.52,7.23-.34,10.97-1.38,3.05-.85,6.25-3.03,9.89-3.47,3.25-.39,6.87,1.39,10.44,1.39s6.96.07,10.21.46c3.64.44,7.75-1.7,10.8-.85,3.75,1.04,6.18,4.96,8.69,6.48,3.73,2.26,8.86,4.74,8.86,7.65Z"/>
      </g>
      <g>
        <path class="cls-3" d="m331.61,442.19c0,1.14-1.16,1.46-5.19,2.28-2.06.42-4.5.4-7.3.69-2.28.23-4.66,1.29-7.29,1.41-2.37.11-4.84-.63-7.41-.63s-5.15,3.21-7.52,3.11c-2.64-.12-5.01-2.62-7.29-2.85-2.8-.28-5.52.56-7.58.14-4.03-.82-5.76-3-5.76-4.15s2.04-1.86,6.06-2.68c2.06-.42,4.27-3.07,7.07-3.35,2.28-.23,4.97,1.76,7.6,1.64,2.37-.11,4.85,1.6,7.41,1.6s5.1-2.9,7.46-2.8c2.64.12,4.99,2.13,7.27,2.36,2.8.28,5.41-.44,7.47-.02,4.03.82,4.99,2.1,4.99,3.25Z"/>
        <path class="cls-8" d="m331.61,442.19c0,1.14-1.16,1.46-5.19,2.28-2.06.42-4.5.4-7.3.69-2.28.23-4.66,1.29-7.29,1.41-2.37.11-4.84-.63-7.41-.63s-5.15,3.21-7.52,3.11c-2.64-.12-5.01-2.62-7.29-2.85-2.8-.28-5.52.56-7.58.14-4.03-.82-5.76-3-5.76-4.15s2.04-1.86,6.06-2.68c2.06-.42,4.27-3.07,7.07-3.35,2.28-.23,4.97,1.76,7.6,1.64,2.37-.11,4.85,1.6,7.41,1.6s5.1-2.9,7.46-2.8c2.64.12,4.99,2.13,7.27,2.36,2.8.28,5.41-.44,7.47-.02,4.03.82,4.99,2.1,4.99,3.25Z"/>
      </g>
      <g>
        <path class="cls-3" d="m154.05,421.88c0,1.33-3.15,1.5-7.09,2.37-2.12.46-4.56.36-7.4.6-2.35.2-4.78,2.57-7.45,2.57s-5.13-1.89-7.49-2.09c-2.83-.24-5.47.41-7.58-.05-3.94-.86-5.04-2.06-5.04-3.39s1.1-2.55,5.04-3.42c2.12-.46,4.53-2.49,7.36-2.73,2.35-.2,5.05,2.98,7.71,2.98s5.14-.62,7.5-.42c2.83.24,5.43-.17,7.55.29,3.94.86,6.88,1.96,6.88,3.29Z"/>
        <path class="cls-8" d="m154.05,421.88c0,1.33-3.15,1.5-7.09,2.37-2.12.46-4.56.36-7.4.6-2.35.2-4.78,2.57-7.45,2.57s-5.13-1.89-7.49-2.09c-2.83-.24-5.47.41-7.58-.05-3.94-.86-5.04-2.06-5.04-3.39s1.1-2.55,5.04-3.42c2.12-.46,4.53-2.49,7.36-2.73,2.35-.2,5.05,2.98,7.71,2.98s5.14-.62,7.5-.42c2.83.24,5.43-.17,7.55.29,3.94.86,6.88,1.96,6.88,3.29Z"/>
      </g>
      <g>
        <path class="cls-3" d="m268.49,407.58c0,1.33-1.99,3.72-5.92,4.58-2.12.46-4.98-1.04-7.81-.81-2.35.2-4.85,1.72-7.51,1.72s-5.31.28-7.66.08c-2.83-.24-5.55-.53-7.67-.99-3.94-.86-6.43-3.26-6.43-4.59s3.11-.89,7.05-1.76c2.12-.46,4.19-3.86,7.02-4.1,2.35-.2,5.02.93,7.69.93s5.35-1.32,7.7-1.12c2.83.24,5.44,1.33,7.55,1.8,3.94.86,6,2.92,6,4.25Z"/>
        <path class="cls-8" d="m268.49,407.58c0,1.33-1.99,3.72-5.92,4.58-2.12.46-4.98-1.04-7.81-.81-2.35.2-4.85,1.72-7.51,1.72s-5.31.28-7.66.08c-2.83-.24-5.55-.53-7.67-.99-3.94-.86-6.43-3.26-6.43-4.59s3.11-.89,7.05-1.76c2.12-.46,4.19-3.86,7.02-4.1,2.35-.2,5.02.93,7.69.93s5.35-1.32,7.7-1.12c2.83.24,5.44,1.33,7.55,1.8,3.94.86,6,2.92,6,4.25Z"/>
      </g>
      <g>
        <g>
          <g id="_Radial_Repeat_" data-name="&amp;lt;Radial Repeat&amp;gt;">
            <path class="cls-2" d="m85.83,270.63s14.24,28.48,0,28.48h-28.48c-14.24,0,0-28.48,0-28.48"/>
          </g>
          <g id="_Radial_Repeat_-2" data-name="&amp;lt;Radial Repeat&amp;gt;">
            <path class="cls-2" d="m51.53,268.22s-10.07,30.21-20.14,20.14q-10.07-10.07-20.14-20.14c-10.07-10.07,20.14-20.14,20.14-20.14"/>
          </g>
          <g id="_Radial_Repeat_-3" data-name="&amp;lt;Radial Repeat&amp;gt;">
            <path class="cls-2" d="m28.98,242.26s-28.48,14.24-28.48,0v-28.48c0-14.24,28.48,0,28.48,0"/>
          </g>
          <g id="_Radial_Repeat_-4" data-name="&amp;lt;Radial Repeat&amp;gt;">
            <path class="cls-2" d="m31.39,207.96s-30.21-10.07-20.14-20.14q10.07-10.07,20.14-20.14c10.07-10.07,20.14,20.14,20.14,20.14"/>
          </g>
          <g id="_Radial_Repeat_-5" data-name="&amp;lt;Radial Repeat&amp;gt;">
            <path class="cls-2" d="m57.35,185.41s-14.24-28.48,0-28.48h28.48c14.24,0,0,28.48,0,28.48"/>
          </g>
          <g id="_Radial_Repeat_-6" data-name="&amp;lt;Radial Repeat&amp;gt;">
            <path class="cls-2" d="m91.65,187.82s10.07-30.21,20.14-20.14q10.07,10.07,20.14,20.14c10.07,10.07-20.14,20.14-20.14,20.14"/>
          </g>
          <g id="_Radial_Repeat_-7" data-name="&amp;lt;Radial Repeat&amp;gt;">
            <path class="cls-2" d="m114.2,213.78s28.48-14.24,28.48,0v28.48c0,14.24-28.48,0-28.48,0"/>
          </g>
          <g id="_Radial_Repeat_-8" data-name="&amp;lt;Radial Repeat&amp;gt;">
            <path class="cls-2" d="m111.79,248.08s30.21,10.07,20.14,20.14q-10.07,10.07-20.14,20.14c-10.07,10.07-20.14-20.14-20.14-20.14"/>
          </g>
        </g>
        <circle class="cls-5" cx="71.59" cy="228.02" r="46.55"/>
      </g>
      <g>
        <g>
          <g id="_Radial_Repeat_-9" data-name="&amp;lt;Radial Repeat&amp;gt;">
            <path class="cls-2" d="m58.6,357.34s6.72,13.44,0,13.44h-13.44c-6.72,0,0-13.44,0-13.44"/>
          </g>
          <g id="_Radial_Repeat_-10" data-name="&amp;lt;Radial Repeat&amp;gt;">
            <path class="cls-2" d="m42.42,356.2s-4.75,14.26-9.5,9.5l-9.5-9.5c-4.75-4.75,9.5-9.5,9.5-9.5"/>
          </g>
          <g id="_Radial_Repeat_-11" data-name="&amp;lt;Radial Repeat&amp;gt;">
            <path class="cls-2" d="m31.78,343.95s-13.44,6.72-13.44,0v-13.44c0-6.72,13.44,0,13.44,0"/>
          </g>
          <g id="_Radial_Repeat_-12" data-name="&amp;lt;Radial Repeat&amp;gt;">
            <path class="cls-2" d="m32.91,327.76s-14.26-4.75-9.5-9.5l9.5-9.5c4.75-4.75,9.5,9.5,9.5,9.5"/>
          </g>
          <g id="_Radial_Repeat_-13" data-name="&amp;lt;Radial Repeat&amp;gt;">
            <path class="cls-2" d="m45.16,317.12s-6.72-13.44,0-13.44h13.44c6.72,0,0,13.44,0,13.44"/>
          </g>
          <g id="_Radial_Repeat_-14" data-name="&amp;lt;Radial Repeat&amp;gt;">
            <path class="cls-2" d="m61.35,318.26s4.75-14.26,9.5-9.5l9.5,9.5c4.75,4.75-9.5,9.5-9.5,9.5"/>
          </g>
          <g id="_Radial_Repeat_-15" data-name="&amp;lt;Radial Repeat&amp;gt;">
            <path class="cls-2" d="m71.99,330.51s13.44-6.72,13.44,0v13.44c0,6.72-13.44,0-13.44,0"/>
          </g>
          <g id="_Radial_Repeat_-16" data-name="&amp;lt;Radial Repeat&amp;gt;">
            <path class="cls-2" d="m70.86,346.7s14.26,4.75,9.5,9.5l-9.5,9.5c-4.75,4.75-9.5-9.5-9.5-9.5"/>
          </g>
        </g>
        <circle class="cls-5" cx="51.88" cy="337.23" r="21.97"/>
      </g>
      <path class="cls-6" d="m210.15,473.91l-17.51-5.19s-36.19,1.22-36.07,47.43c.15,53.23-1.75,54.18-1.75,54.18h25.32s-12.66-19.37-15.26-54.18c-2.84-38.09,26.87-33.48,45.26-42.24Z"/>
      <g>
        <g>
          <g id="_Radial_Repeat_-17" data-name="&amp;lt;Radial Repeat&amp;gt;">
            <path class="cls-2" d="m194.71,490.23s-6.72,13.44,0,13.44q6.72,0,13.44,0c6.72,0,0-13.44,0-13.44"/>
          </g>
          <g id="_Radial_Repeat_-18" data-name="&amp;lt;Radial Repeat&amp;gt;">
            <path class="cls-2" d="m210.9,489.09s4.75,14.26,9.5,9.5l9.5-9.5c4.75-4.75-9.5-9.5-9.5-9.5"/>
          </g>
          <g id="_Radial_Repeat_-19" data-name="&amp;lt;Radial Repeat&amp;gt;">
            <path class="cls-2" d="m221.54,476.84s13.44,6.72,13.44,0v-13.44c0-6.72-13.44,0-13.44,0"/>
          </g>
          <g id="_Radial_Repeat_-20" data-name="&amp;lt;Radial Repeat&amp;gt;">
            <path class="cls-2" d="m220.4,460.65s14.26-4.75,9.5-9.5l-9.5-9.5c-4.75-4.75-9.5,9.5-9.5,9.5"/>
          </g>
          <g id="_Radial_Repeat_-21" data-name="&amp;lt;Radial Repeat&amp;gt;">
            <path class="cls-2" d="m208.15,450.01s6.72-13.44,0-13.44h-13.44c-6.72,0,0,13.44,0,13.44"/>
          </g>
          <g id="_Radial_Repeat_-22" data-name="&amp;lt;Radial Repeat&amp;gt;">
            <path class="cls-2" d="m191.96,451.15s-4.75-14.26-9.5-9.5l-9.5,9.5c-4.75,4.75,9.5,9.5,9.5,9.5"/>
          </g>
          <g id="_Radial_Repeat_-23" data-name="&amp;lt;Radial Repeat&amp;gt;">
            <path class="cls-2" d="m181.32,463.4s-13.44-6.72-13.44,0v13.44c0,6.72,13.44,0,13.44,0"/>
          </g>
          <g id="_Radial_Repeat_-24" data-name="&amp;lt;Radial Repeat&amp;gt;">
            <path class="cls-2" d="m182.46,479.59s-14.26,4.75-9.5,9.5l9.5,9.5c4.75,4.75,9.5-9.5,9.5-9.5"/>
          </g>
        </g>
        <circle class="cls-5" cx="201.43" cy="470.12" r="21.97"/>
      </g>
      <path class="cls-5" d="m182.6,382.71c-21.39,0-40.15-13.21-47.54-32.8-19.78-2.33-34.13-20.22-32.04-40.11,1.04-9.94,6.16-19,13.97-25.06.31-9.88,4.64-19.35,12.07-26.04,6.71-6.05,15.38-9.38,24.42-9.38.91,0,1.82.03,2.73.1,6.84-7.13,16.39-11.28,26.38-11.28s19.54,4.14,26.38,11.28c.91-.07,1.82-.1,2.73-.1,9.04,0,17.71,3.33,24.43,9.38,7.42,6.68,11.75,16.15,12.06,26.04,7.81,6.06,12.93,15.12,13.97,25.06,2.09,19.88-12.25,37.76-32.04,40.1-7.39,19.58-26.15,32.8-47.54,32.8Z"/>
      <path class="cls-4" d="m228.83,342.07c-1.55.17-3.08.2-4.59.11-4.61,18.71-21.51,32.59-41.64,32.59s-37.03-13.88-41.64-32.59c-1.51.09-3.04.06-4.59-.11-15.71-1.65-27.1-15.72-25.45-31.43.99-9.46,6.5-17.35,14.15-21.78-.92-8.78,2.22-17.88,9.3-24.25,7.07-6.37,16.44-8.55,25.09-6.71,5.19-7.15,13.62-11.8,23.14-11.8s17.94,4.65,23.14,11.8c8.65-1.83,18.02.34,25.09,6.71,7.08,6.37,10.22,15.46,9.3,24.26,7.66,4.42,13.16,12.31,14.15,21.77,1.65,15.71-9.74,29.78-25.45,31.43Z"/>
      <g>
        <ellipse class="cls-7" cx="148.29" cy="331.88" rx="22.46" ry="7.49"/>
        <ellipse class="cls-7" cx="158.34" cy="307.62" rx="7.49" ry="22.46" transform="translate(-171.14 202.06) rotate(-45)"/>
        <ellipse class="cls-7" cx="182.6" cy="297.57" rx="7.49" ry="22.46"/>
        <ellipse class="cls-7" cx="206.86" cy="307.62" rx="22.46" ry="7.49" transform="translate(-156.93 236.37) rotate(-45)"/>
        <ellipse class="cls-7" cx="216.91" cy="331.88" rx="22.46" ry="7.49"/>
      </g>
      <circle class="cls-6" cx="182.6" cy="331.88" r="28.59"/>
    </g>
  </g>
</svg>