<?xml version="1.0" encoding="UTF-8"?>
<svg id="Layer_2" data-name="Layer 2" xmlns="http://www.w3.org/2000/svg" viewBox="0 0 623.86 367.18">
  <defs>
    <style>
      .cls-1 {
        fill: #f19b23;
      }

      .cls-1, .cls-2, .cls-3, .cls-4, .cls-5 {
        stroke: #231f20;
        stroke-miterlimit: 10;
      }

      .cls-2 {
        fill: #ea4824;
      }

      .cls-3 {
        fill: #ed908a;
      }

      .cls-4 {
        fill: #d6b729;
      }

      .cls-5 {
        fill: #de7293;
      }
    </style>
  </defs>
  <g id="Layer_1-2" data-name="Layer 1">
    <path class="cls-3" d="m623.36.5v54.75c0,171.72-139.71,311.43-311.43,311.43S.5,226.98.5,55.25V.5h622.86Z"/>
    <path class="cls-5" d="m609.67,14.19v41.07c0,164.17-133.57,297.74-297.74,297.74S14.19,219.43,14.19,55.25V14.19h595.48Z"/>
    <path class="cls-2" d="m595.98,27.88v27.38c0,156.63-127.42,284.05-284.05,284.05S27.88,211.88,27.88,55.25v-27.38h568.1Z"/>
    <path class="cls-1" d="m582.29,41.57v13.69c0,149.08-121.28,270.36-270.36,270.36S41.57,204.33,41.57,55.25v-13.69h540.72Z"/>
    <path class="cls-4" d="m311.93,311.93c141.76,0,256.67-114.92,256.67-256.67H55.26c0,141.76,114.92,256.67,256.67,256.67Z"/>
  </g>
</svg>