<?xml version="1.0" encoding="UTF-8"?>
<svg id="Layer_2" data-name="Layer 2" xmlns="http://www.w3.org/2000/svg" viewBox="0 0 636.08 182.2">
  <defs>
    <style>
      .cls-1 {
        fill: #e7dbbe;
      }

      .cls-1, .cls-2 {
        stroke: #231f20;
        stroke-miterlimit: 10;
      }

      .cls-2 {
        fill: #6e50a1;
      }
    </style>
  </defs>
  <g id="Layer_1-2" data-name="Layer 1">
    <g>
      <path class="cls-1" d="m625.62,99.44c-4.91,0-9.18,2.19-12.48,4.75-.93-.45-2.05-.94-3.41-1.55-.46-.2-.84-.37-1.1-.49l-.18-.08c-4.68-2.03-9.68-2.03-13.34-2.03-8.47,0-17.05,3.06-23.52,8.39-3.21,2.65-5.8,5.73-7.69,9.11-3.31-7.14-10.23-13.25-24.18-13.25-3.87,0-7.28.92-10.29,2.33-1.74-2.61-4.9-4.55-9.62-4.55-4.25,0-7.85,2.17-10.74,3.91-.67.4-1.29.78-1.74,1.01l-.99.51c-.65.21-1.54.46-2.03.54-1.97.09-3.82.76-5.33,1.91-1.17-5.68-4.92-7.69-7.59-8.41.04-.51.07-1.02.07-1.55,0-7.76-5.76-13.73-13.64-14.43.07-.04.13-.07.19-.11l4.35-2.49v-5.01c0-5.55-2.86-8.78-4.4-10.51-.41-.46-.73-.82-.97-1.17-1.55-2.25-2.46-5.61-2.5-9.27.04-.43.14-1.09.23-1.75.01-.11.03-.21.04-.31,1.97-2.31,3.84-3.93,5.65-4.89.31.6.66,1.2,1.05,1.8,3.26,4.94,8.41,7.66,14.51,7.66,3.12,0,5.85-.96,8.15-2.54.09,7.79,3.39,14.14,9.15,18.41-1.52,2.32-2.38,5.17-2.38,8.34,0,6.02,2.8,16.12,21.58,16.12,20.86,0,38.08-15.2,41.86-36.97l.13-.74v-24.6c0-1.79.25-3.38.54-5.22.32-2.01.67-4.29.67-6.91v-8.64h-8.64c-8.29,0-24.2,8.47-24.2,20.06v20.47c-.7,1.06-3.05,2.62-4.29,2.83-.82-.03-1.37-.46-1.69-.82-.41-.47-.63-1.05-.56-1.52l.08-.57v-.17c.13-.86.58-3,.88-4.45.94-4.51,1.24-6.1,1.24-7.57v-2.73c0-13.45-8.33-21.47-22.28-21.47-1.73,0-4.1,0-7.33.97l-6.16,1.84v2.81c-3.91-2.11-8.86-3.3-14.51-3.3-4.47,0-8.88.95-12.98,2.76-.4-3.37-2.12-6.26-4.78-7.92l-2.1-1.31h-2.48c-2.09,0-4.3.7-6.55,2.09l-1.45.89-.63.87c-.96.78-3.57,2.6-5.58,3.77l-.45.25-.45.35c-.32.23-1.37.8-2.12,1.22-4.94,2.71-12.41,6.81-12.41,14.86,0,3.31,1.13,8.73,7.98,11.16v12.16c-.18.39-.7,1.19-1.06,1.73-.49.75-1.07,1.64-1.62,2.65l-.54-.26c-1.05-.97-2.7-2.91-4.61-6.63l-.14-.28-.16-.27c-1.41-2.31-2.87-5.73-4.42-9.34-1.39-3.23-2.96-6.89-4.73-10.34-.57-1.14-1.15-2.43-1.77-3.8-1.7-3.78-3.63-8.06-6.41-11.5-6.16-7.64-13.86-11.23-24.21-11.3-.37-.02-.75-.03-1.14-.03-9.15,0-19.08,4.95-19.78,14.12-.43,3.77.67,7.37,3.1,10.18.78.9,1.68,1.69,2.67,2.36-3.35,2.57-5.96,5.96-7.65,9.99-1.91-3.51-4.26-7.71-6.27-11.25-2.1-3.7-4.06-7.07-5.51-9.5-2.99-4.99-4.96-8.29-10.07-8.29h-4.86l-2.52,4.16c-2.09,3.45-4.52,7.24-6.73,10.54-.77-1.56-1.46-3.02-1.94-4.04-3.39-7.15-5.44-11.47-11.43-11.47-7.34,0-9.95,7.26-11.2,10.75-.08.22-.15.43-.22.61-.25.43-.54.93-.84,1.48-.45.79-1.26,2.23-1.64,2.77l-.47.52-.45.77c-.96,1.63-2.13,3.22-3.36,4.89-.2.27-.4.55-.6.82-.73-15.37-22.59-20.58-32.66-20.58-14.53,0-25.8,4.8-32.55,13.3-1.8-10.63-13.17-17.34-30.01-17.34-7.28,0-13.44,1.05-18.31,3.13-6.68,2.85-11,7.65-12.58,13.78-7.19-8.62-19.47-13.07-31.66-13.07s-22.99,4.04-30.12,11.36c-5.16,5.31-8.13,12.08-8.73,19.75-1.14-.32-2.32-.49-3.5-.49-2.68,0-5.22.89-7.29,2.49-.27-.48-.53-.95-.79-1.41,8.52-5.54,13.18-15.01,13.18-26.9,0-10.4-3.85-27.84-29.66-27.84-5.21,0-9.96.96-14.55,1.89-3.93.79-7.64,1.55-11.12,1.55-2.48,0-4.62-.18-6.55-.55l-.15-.03c-.15-.03-.55-.14-.85-.22-1.23-.33-2.91-.79-4.93-.79-3.2,0-6.12,1.16-8.43,3.36l-2.19,2.08-.41,3c-.83,6.05,2.53,10.41,4.34,12.76.16.2.31.4.46.61.08.13.12.21.14.26.03.1.06.2.1.31.11.34.24.74.42,1.25l.08.24.1.23c2.26,5.37,2.26,12.5,2.26,19.39,0,14.68-1.98,19.17-2.56,20.17l-5.63,1.05v7.98c-.34,2.24-.29,5.49,1.92,8.32.18.23.38.44.57.65-15.4,3.29-24.22,12.12-24.22,25,0,8.8,4.26,14.82,10.06,19.25h-2l-2.39,4.78c-.61,1.22-2.88,4.09-4.54,6.19-5.14,6.5-8.29,10.73-8.29,15.56,0,7.34,4.76,9.89,8.06,10.37h0c14.86,2.06,27.31,3.02,39.18,3.02h11.4l.68-.11c5.18-.83,18.98-3.05,23.95-16.44,6.7,11.31,20.57,17.16,34.31,17.16,10.91,0,21.89-3.14,27.81-9.9,5.17,7.12,13.92,11.62,24.24,11.62,5.92,0,11.19-.92,17.58-5.36.45-.28.86-.55,1.26-.82,4.12,3.05,9.32,5.26,14.91,5.26,11.82,0,14.32-6.52,14.8-10.13.93,3.8,3.89,8.41,12.79,8.41.58,0,1.38,0,5.49-.75.34-.06,1.08-.16,2.3-.16,1.43,0,2.92.11,4.12.19.92.07,1.59.11,2.14.11h.02c.18,0,.4.03.64.05.78.07,1.85.15,3.09.15,9.39,0,13.59-6.27,13.59-12.48,0-2.47-.79-4.64-2.36-6.48,1.57-4.36,3.92-9.5,6.18-13.82-.17,1.56-.27,3.17-.27,4.83,0,17.4,13.65,29.56,33.2,29.56,7.53,0,15.81-1.77,22.16-4.74,3.36-1.58,6.21-3.49,8.52-5.69.64,2.78,2.13,4.59,2.8,5.4l2.59,3.11h4.05c1.17,0,4.96.2,8.02.35,4.29.22,6.99.35,8.36.35h.71c5.77,0,10.16-4.06,11.15-9.97,2.39,7.17,8.35,10.68,18.05,10.68h4.55c2.58,0,5.21-.87,6.22-1.24l5.65-2.08v-11.63l-.16-.16c1.54,1.21,3.24,2.26,5.1,3.13-1.43,2.3-2.21,5.14-2.21,8.39,0,6.15,2.63,11.12,7.42,13.99,4.08,2.45,8.71,2.73,11.83,2.73,14.5,0,27.57-7.9,35.22-19.61,1.44,2.76,4.15,4.8,7.43,5.35l.71.12h.71c2.35,0,4.46-.18,6.31-.35,1.56-.14,2.91-.26,4.2-.26,1.96,0,3.86.14,5.88.28,2.27.16,4.61.33,7.25.33,3.81,0,6.69-1.25,8.48-3.57.01.02.03.04.05.06l2.59,3.11h4.05c1.17,0,4.96.2,8.02.35,4.29.22,6.99.35,8.36.35h.71c5.77,0,10.16-4.06,11.15-9.97,2.39,7.17,8.35,10.68,18.05,10.68h4.55c2.58,0,5.21-.87,6.22-1.24l5.65-2.08v-11.63l-.15-.15c1.54,1.2,3.24,2.25,5.1,3.13-1.43,2.3-2.21,5.14-2.21,8.39,0,6.15,2.63,11.12,7.42,13.99,4.08,2.45,8.71,2.73,11.83,2.73,22.92,0,42.29-19.74,42.29-43.1v-20.91c.06-.25.13-.54.21-.84.69-2.73,1.1-4.52,1.1-6.24v-1.21c0-5.77-4.19-9.95-9.95-9.95Zm-222.4-41.02c.36.78.79,1.98,1.11,2.85.33.92.7,1.94,1.13,3,.12.41.27.83.44,1.29-.9.32-2.01.52-3.42.52-3.25,0-4.4-1.15-4.4-4.4,0-1.95,2.86-3.09,5.14-3.26Zm-137.29-12.5c-.6.62-1.2,1.24-1.8,1.86.49-.82,1.08-1.48,1.8-1.86Zm-119.55,1.67c2.68,0,5.31,3.53,5.31,7.13,0,1.06-.2,10.36-7.13,10.36-5.95,0-6.42-5.92-6.42-7.73,0-6.47,2.77-9.75,8.24-9.75Zm-77.47-21.04c4.39.65,4.75,5.02,4.75,6.44,0,3.14-2.34,4.62-4.75,5.31v-11.75Zm-19.67,79.87c-.69-.24-1.37-.47-2.03-.71h1.88c.05.24.1.48.15.71Zm-7.97,39.1c-2.94,0-5.29-4.55-6.5-8.51.69.27,1.37.54,2.04.8,3.88,1.51,10.85,4.22,12.74,6.15-1.18.68-4.11,1.56-8.28,1.56Zm77.11,0c-3.7,0-6.82-5.43-6.82-8.84,0-3.8,2.02-7.31,4.95-9.37.05,9.19,5.81,15.26,14.81,15.75-2.61,1.31-6.57,2.46-12.94,2.46Zm30.38-22.03c-.26-1.7-.72-3.31-1.34-4.83.2.27.4.54.62.8.78.9,1.68,1.69,2.67,2.36-.68.52-1.33,1.09-1.95,1.68Zm25.1,22.83c-3.25,0-4.4-1.15-4.4-4.4,0-1.95,2.86-3.09,5.14-3.26.36.78.79,1.98,1.11,2.85.33.92.7,1.94,1.13,3,.12.41.27.83.44,1.29-.9.32-2.01.52-3.42.52Zm62.45-19.55c-.3-.98-.56-1.9-.76-2.69.38.58.77,1.07,1.12,1.49-.09.37-.21.78-.36,1.2Zm62.98,1.25c.49-.82,1.08-1.48,1.8-1.86-.6.62-1.2,1.24-1.8,1.86Zm68.17,11.64c-.35,3.1-.72,6.31-.72,9.74,0,.1,0,.21,0,.31-.61-1.21-1.33-2.25-1.95-3.14-.44-.64-1.09-1.58-1.28-2.04v-11.33c.33-.36.62-.68.87-.97.45-.42.87-.82,1.27-1.21.64-.62,1.52-1.47,1.78-1.61,0,0,.15-.04.54-.06.08.49.09,1.27.09,2.67,0,2.38-.29,4.93-.6,7.64Zm30.43,9.33c.14.18.27.36.42.54-.15-.15-.3-.29-.42-.42,0-.04,0-.08,0-.12Zm37.54-19.56c-.1,1.67-.18,3.08-.24,4.23-1.71.72-4.79,1.44-7.05,1.44h-1.54c-1.37-.94-2.96-2.59-2.96-5.21,0-2.97,3.44-7.52,6.41-7.53,1.28.03,4.14,1.01,5.67,1.94-.07,1.4-.2,3.55-.29,5.13Zm10.14-25.26c-.93-.45-2.05-.94-3.41-1.55-.46-.2-.84-.37-1.1-.49l-.18-.08c-4.68-2.03-9.68-2.03-13.34-2.03-8.47,0-17.05,3.06-23.52,8.39-3.21,2.65-5.8,5.73-7.69,9.11-3.31-7.14-10.23-13.25-24.18-13.25-3.87,0-7.28.92-10.29,2.33-1.74-2.61-4.9-4.55-9.62-4.55-4.24,0-7.85,2.17-10.74,3.91-.67.4-1.29.78-1.73,1.01l-.99.51c-.65.21-1.54.46-2.03.54-2.5.11-4.81,1.17-6.48,2.95-7.45-5.05-18.04-7-24.21-7-12.29,0-22.24,3.44-29.1,9.63-1.43-8.36-8.73-8.83-10.31-8.83h-1.42c-1.64,0-5.91.1-10.42.2-4.22.1-9,.21-10.6.21-3.4,0-6.42,1.55-8.33,4.12-1.65-3.13-4.72-4.69-7.51-5.06l-.57-.08h-.57c-.69,0-1.33.06-3.23.27-1.14.12-3.7.4-4.68.43-1.48-.08-7.33-.4-7.85-.4h-2.67l-2.21,1.51c-2.58,1.76-5.64,4.97-5.68,10.26l-.02.23c-.14,1.51-.52,5.53,2.67,9.3l.12.14.12.13c5.02,5.45,7.73,9,11.35,16.67.49,1.21,1.34,2.94,2.71,5.67.42.85.98,1.96,1.48,3-.21.44-.39.93-.55,1.44v-1.08l-6.45-3.1c-1.05-.97-2.7-2.91-4.61-6.63l-.14-.28-.16-.27c-1.41-2.31-2.87-5.73-4.42-9.34-1.39-3.23-2.96-6.89-4.73-10.34-.57-1.14-1.15-2.43-1.77-3.8-1.7-3.78-3.63-8.06-6.41-11.5-6.16-7.64-13.86-11.23-24.21-11.3-.37-.02-.75-.03-1.15-.03-9.15,0-19.08,4.95-19.78,14.12-.23,2.04,0,4.02.63,5.86-5.21-7.95-16-12.68-30.32-12.68s-28.86,8.26-33.84,22.57c-1.92-3.02-4.38-5.51-7.17-7.6,4.7-2.46,8.31-7.07,8.31-13.21,0-8.09-5.05-14.32-13.93-17.98l1.45-.1,7.53-3.77v-1.03c5.26,3.78,11.19,6.55,17.94,6.55,9.54,0,16.72-3.41,20.22-9.15,6.61,6.24,16.4,10.07,27.69,10.07.29,0,.58,0,.88,0,11.58,0,20.35-2.17,26.8-6.61,1.63-1.12,3.1-2.38,4.41-3.76,1.37,3.26,4.12,4.89,5.51,5.53l.76.35.81.2c6.84,1.67,15.94,3.58,25.69,3.58,4.96,0,12.28-.31,18.5-2.97,4.48-1.92,7.87-4.81,10.07-8.47,5.76,7.56,15.53,12.15,27.53,12.15,7.53,0,15.81-1.77,22.16-4.74,3.01-1.41,5.61-3.1,7.79-5.01l.56.95c.06.12.12.25.19.38,2.35,4.85,5.77,7.31,10.14,7.31,2.98,0,5.96-.44,8.59-.83,2.02-.3,3.93-.58,5.26-.58h3.98l2.59-3.02c.64-.75,1.13-1.5,1.5-2.24,2.12,2.38,5.39,3.34,7.91,3.34,3.74,0,6.31-1.87,8.41-4.75,1.49,4.8,5.72,8.09,11,8.09h2.35l1.1-.3c.9-.24,2-.51,2.41-.6l.16-.03s.15,0,.15,0c.61,0,1.58.1,2.51.19,1.3.13,2.78.28,4.28.28,1.74,0,3.26-.2,4.65-.61l2.1-.62,1.55-1.55c.75-.75,1.32-1.57,1.76-2.41,5.25,5.09,12.7,8.17,21.23,8.17,5.92,0,11.19-.92,17.58-5.36.45-.28.86-.55,1.26-.82,4.12,3.05,9.32,5.26,14.91,5.26,6.16,0,9.79-1.78,11.92-3.99.59.34,1.35.73,2.36,1.16l2.15.92,2.32-.29c1.08-.14,2.88-.14,4.79-.14,2.68,0,5.5.08,7.56.14,1.26.04,2.23.06,2.74.06.98,0,1.87-.02,2.69-.05-4.63,2.34-7.63,6.97-7.86,12.73-.97-.29-2.01-.44-3.12-.44-4.91,0-9.18,2.19-12.48,4.75Zm51.09,29.62c.03-1.03.05-2.04.05-3,0-1.55.31-3.2.73-5.03.84,1.22,2.02,2.38,3.67,3.34.25,3.12.25,6.02.25,9.88v6.6c-.21.51-.62,1.2-1.01,1.88-.17.29-.35.59-.53.91-.35-.54-.69-1.06-1.02-1.53-.38-.56-.81-1.19-1.02-1.57-1.05-2.18-1.18-5.95-1.18-8.6,0-.96.03-1.93.05-2.86Zm38.36,5.86c-.35,3.1-.72,6.31-.72,9.74,0,.1,0,.21,0,.31-.61-1.21-1.33-2.25-1.95-3.14-.44-.64-1.09-1.58-1.28-2.04v-11.33c.33-.36.62-.68.87-.97.45-.42.87-.82,1.27-1.21.64-.62,1.52-1.47,1.78-1.61,0,0,.15-.04.54-.06.08.49.09,1.27.09,2.67,0,2.38-.29,4.93-.6,7.64Zm30.43,9.33c.14.18.27.36.41.54-.15-.14-.29-.29-.42-.42,0-.04,0-.08,0-.12Zm37.54-19.56c-.1,1.67-.18,3.08-.24,4.23-1.71.72-4.79,1.44-7.05,1.44h-1.54c-1.37-.94-2.96-2.59-2.96-5.21,0-2.97,3.44-7.52,6.41-7.53,1.28.03,4.14,1.01,5.67,1.94-.07,1.4-.2,3.55-.29,5.13Z"/>
      <path class="cls-2" d="m38.65,78.26h16.88c3.54,0,12.23-.61,12.23-.61l1.21-.61v-4.04c-1.82-1.41-3.44-3.03-4.85-5.05-2.12-3.03-3.33-8.39-3.33-12.23l.61-.61c9.9,6.97,20.72,24.15,34.16,24.15,5.76,0,13.95-1.72,13.95-9.3,0-1.21-1.01-5.05-2.93-5.86-.61-.71-1.92-1.31-3.13-1.31-1.01,0-1.92.4-2.63,1.31-.61,0-1.52,1.01-2.63,2.73.2.2-.4,3.13-.4,3.74h-.61c-4.65,0-11.32-15.46-13.64-19v-.51c0-1.21,4.65-1.72,5.86-2.32,7.48-4.14,10.51-11.72,10.51-20.41,0-13.95-7.68-19.2-21.02-19.2-8.69,0-16.98,3.44-25.67,3.44-2.83,0-5.56-.2-8.19-.71-2.32-.4-4.75-1.82-6.77.1-.4,2.93,1.82,5.15,3.44,7.38,1.11,1.82,1.01,2.02,1.62,3.74,2.93,6.97,2.93,15.16,2.93,22.74,0,4.24,0,19.5-4.35,25.47-.91,1.52-2.22,2.63-3.84,2.93v1.62s-.61,2.43.61,2.43Zm21.63-58.61s2.22-1.21,2.83-1.21c1.82-.61,2.93-.61,4.65-.61,8.69,0,14.55,6.47,14.55,15.16,0,9.9-8.69,14.55-17.99,14.55h-2.93l-1.11-1.21v-26.68Z"/>
      <path class="cls-2" d="m175.19,54.62c0-15.66-15.97-22.43-29.41-22.43-16.17,0-30.82,8.59-30.32,26.28,0,13.24,12.83,22.03,28.8,21.73,17.38,0,30.92-5.05,30.92-25.57Zm-30.62,19.1c-9.3,0-15.06-7.28-15.06-16.37,0-9.8,5.26-18.39,16.88-18.39,7.98,0,13.95,7.88,13.95,15.77,0,9.8-5.36,19-15.77,19Z"/>
      <path class="cls-2" d="m184.69,76.14c7.88,1.92,15.66,3.33,23.65,3.33,9.8,0,22.84-1.41,22.84-13.95,0-14.25-25.47-17.58-33.45-26.07v-1.31c0-3.23,4.65-5.96,8.59-5.96,2.53,0,9.8,2.02,11.12,5.36,2.02,5.25,0,7.78,7.28,7.78h3.23c2.02-1.31,2.02-3.23,2.02-5.26,0-9.8-14.55-11.72-21.63-11.72-9.2,0-22.94,1.92-22.94,13.74,0,20.31,32.04,12.33,32.04,26.88,0,3.23-5.15,6.57-7.88,6.57-8.39,0-12.33-5.96-14.96-12.53h-3.33c-.61,0-4.65,3.94-5.86,5.96-1.31,1.31-2.02,3.23-2.02,5.25,0,.61,0,1.31,1.31,1.92Z"/>
      <path class="cls-2" d="m264.43,80.18c10.51,0,29.11-4.55,29.11-17.79-2.53,0-4.55,2.63-6.47,4.65-3.44,3.13-11.12,5.86-17.08,5.86-4.65,0-8.39-1.31-10.21-3.23,0,0,.3,0,.3-.61,5.76-3.94,12.43-7.48,18.7-11.22,1.42-.61,6.57-3.74,7.98-4.55,2.53-1.21,8.19-5.46,8.19-8.19,0-9.1-17.48-12.73-24.05-12.73-16.27,0-31.03,7.17-31.03,26.88,0,13.64,11.42,20.92,24.56,20.92Zm2.93-43.25c2.63,0,11.72,2.63,11.72,6.67,0,.51-3.13,4.55-3.84,5.15-5.86,5.96-11.82,12.33-17.69,18.29-2.73-1.92-3.94-8.49-3.94-11.22,0-8.49,3.94-18.9,13.74-18.9Z"/>
      <path class="cls-2" d="m348.41,55.42h.61c2.53,0,4.04,8.79,4.04,10.71,0,3.44-1.52,6.17-1.52,9.6,0,1.92.91,3.33,2.93,3.33h1.21s2.63-.71,3.44-.81c2.93-.51,7.78.91,10.51.1.71-.71.71-2.63.71-3.33,0-4.65-1.31-8.89-3.23-13.54-2.12-4.65-16.67-30.32-17.28-30.32,0,0-10.61,17.48-14.75,21.02-4.75-3.54-11.42-21.83-12.73-21.83-1.82,0-3.23,6.16-3.84,6.87-.91,1.52-2.53,4.65-3.54,5.76-3.33,5.66-7.88,9.8-9.7,15.97-2.12,4.65-3.33,8.59-3.33,13.24,0,.71.51,2.83.51,3.54.71,1.21,1.31,3.33,2.83,3.33,4.55,0,9.8-1.41,13.85-1.41.61-.71.61-1.42.61-1.92,0-2.83-2.73-6.77-2.73-10.21,0-1.92,2.12-10.81,4.75-10.81h.61l.71.71c4.14,6.06,7.98,13.54,10.61,19.61,0,.71.71.71,1.42.71,2.02,0,5.96-10.91,7.28-12.83,1.42-2.02,4.65-6.06,6.06-7.48Z"/>
      <path class="cls-2" d="m417.94,72.1c2.33,3.74,8.29,8.59,14.55,8.59,2.43,0,6.27,0,6.27-3.03v-.71l-2.53-1.21c-3.13-2.42-5.66-6.27-7.58-10-3.13-5.15-5.76-13.04-9.5-20.31-2.22-4.45-4.24-10.11-7.17-13.74-4.65-5.76-10.11-8.08-17.79-8.08-3.94-.3-11.82,1.62-12.03,6.27-.5,3.54,2.53,5.76,5.96,5.56,6.27,0,6.87-5.56,8.69-5.56,1.92,0,3.94,4.95,5.15,6.77,1.11,2.53,4.35,8.79,4.35,8.79v.61c-3.23,0-6.97-1.21-10-1.21-11.22,0-18.19,7.48-18.19,18.09s8.89,18.7,20.62,18.7c5.05,0,8.39-.81,12.83-3.94,3.13-1.92,4.24-3.23,6.37-5.56Zm-28.5-10.41c0-7.58,7.38-11.92,14.35-11.92s7.48,6.16,9.9,11.82c0,.61,2.32,5.46,2.32,6.06v.61c-3.13,4.34-7.88,6.47-13.54,6.47-8.08,0-13.04-5.05-13.04-13.04Z"/>
      <path class="cls-2" d="m488.18,31.78c-4.65,0-9.2,1.41-13.14,4.04-2.33,1.72-6.47,5.56-8.59,6.47l.2-14.86s0-1.62-.81-2.12c-.71,0-2.02.81-2.02.81-.81,1.11-5.25,4.14-7.88,5.66-2.63,2.02-11.12,5.15-11.12,9.2,0,5.36,7.98,1.92,7.98,5.96v17.58c0,4.75-4.65,7.48-4.65,11.42,0,0,0,.61.1,1.62.51.4,1.92,1.01,1.92,1.01,1.62-.2,3.64-.2,5.86-.2,4.34,0,8.99.2,10.31.2,1.21,0,6.67-.2,7.38-.61,0-3.23-2.02-4.14-3.84-6.77-2.73-3.94-4.04-9.2-4.04-14.45,0-.71.61-4.55.61-5.25,3.94-5.15,9.8-11.12,17.79-11.12h2.02c.51,0,.51,10.51,9.7,10.51,4.55,0,7.38-5.25,7.38-9.9,0-7.18-9.4-9.2-15.16-9.2Z"/>
      <path class="cls-2" d="m551.45,36.83v21.02c0,5.56-8.08,10.91-12.83,10.91-6.77,0-11.72-6.06-10.91-12.13,0-1.42,2.12-10.21,2.12-11.62v-2.73c0-8.79-4.75-12.83-13.64-12.83-1.42,0-2.83,0-4.85.61v.61c0,2.12,2.73,4.85,2.73,9.7,0,5.25-1.31,10.71-1.31,16.27,0,12.13,10.91,16.17,21.73,16.17,2.73,0,6.17,0,8.89-1.21,1.31-.81,8.08-7.58,8.79-7.58,0,8.79-5.46,21.73-15.56,22.44h-5.56c0-4.75.81-8.79-5.36-8.79-4.14,0-6.16,2.63-6.16,6.06,0,6.87,7.38,7.48,12.94,7.48,17.68,0,30.52-13.54,33.35-29.81v-23.85c0-4.75,1.21-8.08,1.21-12.13-4.75,0-15.56,6.06-15.56,11.42Z"/>
      <path class="cls-2" d="m39.46,111.92c-.61-.5-3.54-1.72-3.54-1.72-1.21-.61-4.14-3.03-4.14-5.36,0-4.14,6.47-7.78,9.5-7.78h11.22c1.82,0,4.24,1.82,4.75,3.03,0,6.47,1.82,10.71,9,10.71,3.54,0,7.68-2.43,7.68-6.57,0-11.32-19.61-13.04-27.29-13.04-10.71,0-30.32,2.32-30.32,17.79,0,21.42,42.14,19.61,42.14,35.07,0,8.29-10.71,10.11-17.18,10.11-8.99,0-13.74-9.5-15.46-17.28h-4.75c-2.43,4.85-11.92,14.35-11.92,17.89,0,.61,0,1.82.61,1.82,12.43,1.72,24.96,2.93,38,2.93h10.71c11.32-1.82,18.49-5.96,18.49-19,0-20.21-22.64-22.03-37.49-28.6Z"/>
      <path class="cls-2" d="m118.39,154.17c-9.4,0-15.46-10.21-15.46-17.48,0-11.02,9.1-19.91,19.4-19.91,1.42,0,6.97,0,6.97,1.62v.61c-3.44,3.03-4.14,3.74-4.14,8.19,0,5.05,2.63,7.28,7.38,7.28,4.35,0,7.88-2.93,7.88-7.28,0-13.34-15.97-16.07-25.16-16.07-13.74,0-26.98,9.4-26.98,24.76,0,16.78,15.87,24.25,29.81,24.25,7.07,0,23.65-2.22,23.65-13.34h-.71c-2.63,2.22-8.19,7.38-22.64,7.38Z"/>
      <path class="cls-2" d="m200.05,145.98c-3.13-5.15-5.76-13.04-9.5-20.31-2.22-4.45-4.24-10.11-7.17-13.74-4.65-5.76-10.11-8.08-17.79-8.08-3.94-.3-11.82,1.62-12.03,6.27-.5,3.54,2.53,5.76,5.96,5.56,6.27,0,6.87-5.56,8.69-5.56,1.92,0,3.94,4.95,5.15,6.77,1.11,2.53,4.35,8.79,4.35,8.79v.61c-3.23,0-6.97-1.21-10-1.21-11.22,0-18.19,7.48-18.19,18.09s8.89,18.7,20.62,18.7c5.05,0,8.39-.81,12.83-3.94,3.13-1.92,4.24-3.23,6.37-5.56,2.33,3.74,8.29,8.59,14.55,8.59,2.43,0,6.27,0,6.27-3.03v-.71l-2.53-1.21c-3.13-2.42-5.66-6.27-7.58-10Zm-12.63,2.53c-3.13,4.34-7.88,6.47-13.54,6.47-8.08,0-13.04-5.05-13.04-13.04s7.38-11.92,14.35-11.92,7.48,6.16,9.9,11.82c0,.61,2.32,5.46,2.32,6.06v.61Z"/>
      <path class="cls-2" d="m266.65,113.44h-1.42c-3.13,0-17.68.4-21.02.4-1.92,0-1.92,1.92-1.92,3.94,0,2.53,3.23,3.13,3.23,6.37,0,6.47-6.37,16.37-9.5,21.63-3.23,0-9.5-20.11-9.5-23.14,0-3.33,1.92-4.65,1.92-7.18,0-1.21.3-2.42-1.21-2.63-.71,0-6.06.71-8.08.71-1.72-.1-7.58-.4-7.68-.4-1.92,1.31-1.92,2.63-1.92,3.23,0,1.31-.5,2.53.61,3.84,5.86,6.37,8.99,10.71,12.94,19.1.71,1.92,5.25,10.41,5.76,12.23v.71c0,1.92-1.92,1.92-1.92,3.84,0,3.13,1.92,3.13,4.55,3.13.61,0,3.94-.61,3.94-.61,1.11-.2,2.43-.3,3.84-.3,2.73,0,5.46.3,6.37.3.81,0,2.12.2,3.64.2,2.42,0,4.95-.61,4.95-3.84,0-1.92-3.13-1.62-3.13-4.35v-1.11c2.02-7.17,7.07-17.89,11.02-24.35,1.62-4.04,6.47-3.33,6.47-8.49,0-1.92,0-3.23-1.92-3.23Z"/>
      <path class="cls-2" d="m295.25,149.31c5.76-3.94,12.43-7.48,18.7-11.22,1.42-.61,6.57-3.74,7.98-4.55,2.53-1.21,8.19-5.46,8.19-8.19,0-9.1-17.48-12.73-24.05-12.73-16.27,0-31.03,7.17-31.03,26.88,0,13.64,11.42,20.92,24.56,20.92,10.51,0,29.11-4.55,29.11-17.79-2.53,0-4.55,2.63-6.47,4.65-3.44,3.13-11.12,5.86-17.08,5.86-4.65,0-8.39-1.31-10.21-3.23,0,0,.3,0,.3-.61Zm-2.53-2.02c-2.73-1.92-3.94-8.49-3.94-11.22,0-8.49,3.94-18.9,13.74-18.9,2.63,0,11.72,2.63,11.72,6.67,0,.51-3.13,4.55-3.84,5.15-5.86,5.96-11.82,12.33-17.69,18.29Z"/>
      <path class="cls-2" d="m389.24,150.12c0-5.96,1.31-12.33,1.31-18.09,0-11.93-4.55-19.1-18.39-19.1-7.17,0-12.43,5.15-16.98,9.8l-.3-.2v-10.41c0-1.42-1.92-1.42-2.63-1.42-2.53,0-5.96,2.63-8.49,3.94-.61.71-5.15,2.02-6.57,2.02s-.61,1.92-.61,2.53c0,4.04,4.55,2.02,5.15,5.25.71,5.25.71,9.2.71,14.55v7.68c-.71,4.04-3.84,6.57-3.84,9.3,0,1.21.61,1.92,1.11,2.53,2.73,0,13.84.71,16.37.71h.71c2.02,0,2.73-2.02,2.73-3.94,0-2.63-4.65-5.86-4.65-10.51v-15.06s2.63-2.63,3.23-3.44c3.44-3.13,4.95-5.56,10.11-5.56,3.44,0,5.36.61,7.17,3.94,1.31,2.43,1.31,4.65,1.31,7.38,0,5.76-1.31,11.52-1.31,17.38,0,8.49,2.73,10.51,10.61,10.51h4.55c1.31,0,3.23-.71,3.23-.71v-2.02c-1.92-1.92-4.55-3.94-4.55-7.07Z"/>
      <path class="cls-2" d="m458.06,108.08c-4.35,0-8.69,3.84-11.22,6.87h-.5l-2.63-1.92c-.61-.61-4.95-2.43-6.27-3.03-3.03-1.31-6.87-1.31-9.9-1.31-13.04,0-26.28,9.4-26.28,23.14s9.4,19.3,21.93,19.3c9.9,0,11.82-3.03,20.51-6.87,0,8.79-4.35,20.72-13.64,22.54h-3.23c0-4.35-1.21-8.08-6.27-8.08-4.34,0-6.77,1.82-6.77,6.27,0,6.77,5.05,8.08,10.61,8.08,18.09,0,33.65-15.66,33.65-34.46v-21.73c0-.61,1.31-4.95,1.31-6.27v-1.21c0-1.31-.71-1.31-1.31-1.31Zm-13.64,14.96c0,1.92-.71,11.92-.71,13.84-1.21,4.95-11.22,6.87-15.56,6.87h-3.74c-5.56-2.53-9.4-7.58-9.4-13.85,0-7.38,6.87-16.17,15.06-16.17,4.35,0,14.35,3.64,14.35,8.79v.51Z"/>
      <path class="cls-2" d="m476.96,106.47c3.94,0,5.86-2.53,5.86-6.47s-3.23-5.86-6.57-5.86c-3.94,0-6.47,2.53-6.47,6.47,0,4.65,3.23,5.86,7.18,5.86Z"/>
      <path class="cls-2" d="m487.98,136.68c0-2.02.1-4.04.1-5.86,0-5.96,2.63-11.12,2.63-17.08,0-1.42,0-3.94-2.02-3.94-3.13,0-9.7,6.57-13.14,7.88-.5,0-4.55,2.02-5.25,2.02,0,0-3.13,1.72-3.13,3.54.3,2.22,3.44,3.03,3.84,4.25v22.33l-.71,1.21c-.51,1.31-3.13,4.04-3.13,6.67,0,0,.1,1.01,1.31,1.21,3.84,0,7.07-.61,10.51-.61,4.55,0,8.49.61,13.14.61q1.92,0,1.92-2.02c0-2.53-2.63-5.15-3.94-7.68-1.82-3.64-2.12-8.19-2.12-12.53Z"/>
      <path class="cls-2" d="m556.8,150.12c0-5.96,1.31-12.33,1.31-18.09,0-11.93-4.55-19.1-18.39-19.1-7.17,0-12.43,5.15-16.98,9.8l-.3-.2v-10.41c0-1.42-1.92-1.42-2.63-1.42-2.53,0-5.96,2.63-8.49,3.94-.61.71-5.15,2.02-6.57,2.02s-.61,1.92-.61,2.53c0,4.04,4.55,2.02,5.15,5.25.71,5.25.71,9.2.71,14.55v7.68c-.71,4.04-3.84,6.57-3.84,9.3,0,1.21.61,1.92,1.11,2.53,2.73,0,13.84.71,16.37.71h.71c2.02,0,2.73-2.02,2.73-3.94,0-2.63-4.65-5.86-4.65-10.51v-15.06s2.63-2.63,3.23-3.44c3.44-3.13,4.95-5.56,10.11-5.56,3.44,0,5.36.61,7.17,3.94,1.31,2.43,1.31,4.65,1.31,7.38,0,5.76-1.31,11.52-1.31,17.38,0,8.49,2.73,10.51,10.61,10.51h4.55c1.31,0,3.23-.71,3.23-.71v-2.02c-1.92-1.92-4.55-3.94-4.55-7.07Z"/>
      <path class="cls-2" d="m625.62,108.08c-4.35,0-8.69,3.84-11.22,6.87h-.5l-2.63-1.92c-.61-.61-4.95-2.43-6.27-3.03-3.03-1.31-6.87-1.31-9.9-1.31-13.04,0-26.28,9.4-26.28,23.14s9.4,19.3,21.93,19.3c9.9,0,11.82-3.03,20.51-6.87,0,8.79-4.35,20.72-13.64,22.54h-3.23c0-4.35-1.21-8.08-6.27-8.08-4.34,0-6.77,1.82-6.77,6.27,0,6.77,5.05,8.08,10.61,8.08,18.09,0,33.65-15.66,33.65-34.46v-21.73c0-.61,1.31-4.95,1.31-6.27v-1.21c0-1.31-.71-1.31-1.31-1.31Zm-13.64,14.96c0,1.92-.71,11.92-.71,13.84-1.21,4.95-11.22,6.87-15.56,6.87h-3.74c-5.56-2.53-9.4-7.58-9.4-13.85,0-7.38,6.87-16.17,15.06-16.17,4.35,0,14.35,3.64,14.35,8.79v.51Z"/>
    </g>
  </g>
</svg>